<svg width="395" height="239" viewBox="0 0 395 239" fill="none" xmlns="http://www.w3.org/2000/svg">
<path d="M316.92 73.4902H78.0803C77.4771 73.4889 76.8796 73.6068 76.3222 73.837C75.7647 74.0672 75.2582 74.4052 74.8317 74.8317C74.4052 75.2582 74.0672 75.7647 73.837 76.3222C73.6068 76.8796 73.4889 77.4771 73.4902 78.0802V142.42C73.4889 143.024 73.6067 143.622 73.8368 144.18C74.0669 144.738 74.4047 145.245 74.8311 145.672C75.2574 146.1 75.7639 146.439 76.3214 146.67C76.879 146.901 77.4767 147.02 78.0803 147.02H316.92C317.523 147.019 318.12 146.899 318.676 146.667C319.232 146.435 319.738 146.096 320.163 145.669C320.588 145.242 320.925 144.735 321.155 144.178C321.384 143.62 321.502 143.023 321.5 142.42V78.1203C321.507 77.5146 321.393 76.9136 321.166 76.3522C320.939 75.7907 320.603 75.2799 320.177 74.8493C319.751 74.4187 319.244 74.0769 318.685 73.8436C318.126 73.6103 317.526 73.4902 316.92 73.4902ZM115.23 137.89C109.762 137.89 104.416 136.269 99.8687 133.23C95.3217 130.192 91.7778 125.874 89.685 120.821C87.5922 115.769 87.0446 110.21 88.1115 104.846C89.1784 99.4824 91.8119 94.5557 95.6788 90.6887C99.5457 86.8218 104.472 84.1884 109.836 83.1215C115.2 82.0547 120.759 82.6022 125.811 84.695C130.864 86.7877 135.182 90.3317 138.22 94.8787C141.259 99.4258 142.88 104.772 142.88 110.24C142.88 117.573 139.967 124.606 134.782 129.792C129.596 134.977 122.563 137.89 115.23 137.89ZM279.77 137.89C274.302 137.89 268.956 136.269 264.409 133.23C259.862 130.192 256.318 125.874 254.225 120.821C252.132 115.769 251.585 110.21 252.652 104.846C253.718 99.4824 256.352 94.5557 260.219 90.6887C264.086 86.8218 269.012 84.1884 274.376 83.1215C279.74 82.0547 285.299 82.6022 290.351 84.695C295.404 86.7877 299.722 90.3317 302.76 94.8787C305.799 99.4258 307.42 104.772 307.42 110.24C307.42 117.573 304.507 124.606 299.322 129.792C294.136 134.977 287.104 137.89 279.77 137.89Z" fill="#83EAD7"/>
<path d="M390.41 0H4.59C3.37346 0.00264177 2.20751 0.48707 1.34729 1.34729C0.48707 2.20751 0.00264177 3.37346 0 4.59V234.24C-2.87869e-06 235.458 0.483275 236.627 1.34378 237.489C2.20429 238.352 3.37173 238.837 4.59 238.84H390.41C391.628 238.837 392.796 238.352 393.656 237.489C394.517 236.627 395 235.458 395 234.24V4.59C394.997 3.37346 394.513 2.20751 393.653 1.34729C392.792 0.48707 391.626 0.00264177 390.41 0ZM110.23 225.06C108.412 225.06 106.636 224.521 105.124 223.511C103.613 222.501 102.435 221.066 101.74 219.387C101.044 217.708 100.862 215.86 101.217 214.077C101.571 212.294 102.446 210.657 103.732 209.372C105.017 208.086 106.654 207.211 108.437 206.857C110.22 206.502 112.068 206.684 113.747 207.38C115.426 208.075 116.861 209.253 117.871 210.764C118.881 212.276 119.42 214.052 119.42 215.87C119.421 217.077 119.185 218.273 118.723 219.388C118.262 220.504 117.585 221.518 116.731 222.371C115.878 223.225 114.864 223.902 113.748 224.363C112.633 224.825 111.437 225.061 110.23 225.06ZM156.16 215.87H142.38V202.09H156.16V215.87ZM252.62 215.87H238.84V202.09H252.62V215.87ZM284.77 225.06C282.952 225.062 281.174 224.525 279.662 223.516C278.149 222.507 276.97 221.073 276.272 219.394C275.575 217.715 275.392 215.867 275.745 214.083C276.099 212.3 276.973 210.661 278.258 209.375C279.543 208.089 281.18 207.213 282.963 206.857C284.746 206.502 286.595 206.683 288.275 207.379C289.954 208.074 291.39 209.252 292.401 210.763C293.411 212.275 293.95 214.052 293.95 215.87C293.95 218.306 292.983 220.642 291.262 222.365C289.541 224.088 287.206 225.057 284.77 225.06ZM367.44 160.76C367.44 163.195 366.473 165.53 364.751 167.251C363.03 168.973 360.695 169.94 358.26 169.94H36.74C34.3053 169.94 31.9704 168.973 30.2488 167.251C28.5272 165.53 27.56 163.195 27.56 160.76V32.15C27.56 29.7153 28.5272 27.3803 30.2488 25.6588C31.9704 23.9372 34.3053 22.97 36.74 22.97H358.26C360.695 22.97 363.03 23.9372 364.751 25.6588C366.473 27.3803 367.44 29.7153 367.44 32.15V160.76Z" fill="#84EBD8"/>
<path d="M339.891 235.5H339.221L330.701 192.91C330.701 191.702 330.463 190.506 330.001 189.391C329.538 188.275 328.86 187.262 328.006 186.408C327.151 185.555 326.137 184.878 325.021 184.417C323.905 183.955 322.709 183.719 321.501 183.72H73.5011C71.0638 183.72 68.7263 184.688 67.0028 186.412C65.2793 188.135 64.3111 190.473 64.3111 192.91L55.7911 235.5H55.1211L64.3111 189.57C64.3243 187.14 65.298 184.815 67.0198 183.1C68.7415 181.386 71.0715 180.423 73.5011 180.42H321.501C323.938 180.423 326.274 181.392 327.996 183.115C329.719 184.837 330.688 187.173 330.691 189.61L339.891 235.5Z" fill="#8BF7E4"/>
<path d="M339.221 235.5L330.701 192.91C330.701 191.702 330.463 190.506 330.001 189.391C329.538 188.275 328.86 187.261 328.006 186.408C327.151 185.554 326.137 184.878 325.021 184.416C323.905 183.955 322.709 183.718 321.501 183.72H73.5011C71.0638 183.72 68.7263 184.688 67.0028 186.411C65.2793 188.135 64.3111 190.472 64.3111 192.91L55.7911 235.5L55.1211 238.84H339.891L339.221 235.5ZM275.731 214.21C276.157 211.883 277.463 209.81 279.378 208.422C281.293 207.034 283.669 206.438 286.013 206.758C288.356 207.077 290.486 208.288 291.96 210.138C293.433 211.988 294.137 214.335 293.924 216.69C293.711 219.046 292.598 221.229 290.817 222.785C289.036 224.341 286.723 225.15 284.36 225.044C281.998 224.938 279.767 223.926 278.131 222.217C276.496 220.508 275.583 218.235 275.581 215.87C275.581 215.313 275.631 214.757 275.731 214.21ZM238.841 202.09H252.611V215.87H238.841V202.09ZM142.391 202.09H156.161V215.87H142.391V202.09ZM101.201 214.21C101.639 211.899 102.951 209.846 104.864 208.478C106.777 207.11 109.144 206.532 111.472 206.865C113.801 207.197 115.911 208.414 117.365 210.262C118.819 212.111 119.504 214.449 119.279 216.79C119.053 219.131 117.934 221.295 116.154 222.832C114.373 224.368 112.069 225.16 109.72 225.041C107.372 224.923 105.159 223.904 103.542 222.195C101.926 220.487 101.03 218.222 101.041 215.87C101.044 215.313 101.098 214.757 101.201 214.21Z" fill="#66E3CD"/>
<path d="M358.261 22.9697H36.7405C35.535 22.9697 34.3413 23.2072 33.2275 23.6685C32.1138 24.1298 31.1018 24.806 30.2493 25.6585C29.3969 26.5109 28.7207 27.5229 28.2593 28.6367C27.798 29.7505 27.5605 30.9442 27.5605 32.1497V160.76C27.5605 163.194 28.5277 165.529 30.2493 167.251C31.9709 168.973 34.3059 169.94 36.7405 169.94H358.261C360.695 169.94 363.03 168.973 364.752 167.251C366.473 165.529 367.441 163.194 367.441 160.76V32.1497C367.441 29.715 366.473 27.3801 364.752 25.6585C363.03 23.9369 360.695 22.9697 358.261 22.9697ZM321.501 142.42C321.502 143.023 321.384 143.621 321.154 144.179C320.924 144.737 320.586 145.245 320.16 145.672C319.733 146.099 319.227 146.438 318.669 146.669C318.112 146.901 317.514 147.02 316.911 147.02H78.0806C77.4778 147.018 76.8811 146.898 76.3248 146.667C75.7684 146.435 75.2631 146.095 74.8378 145.668C74.4125 145.241 74.0756 144.734 73.8461 144.177C73.6167 143.62 73.4992 143.022 73.5005 142.42V78.1197C73.4992 77.5166 73.617 76.9191 73.8472 76.3616C74.0774 75.8042 74.4155 75.2977 74.842 74.8712C75.2685 74.4447 75.775 74.1066 76.3325 73.8764C76.8899 73.6462 77.4874 73.5284 78.0906 73.5297H316.921C317.524 73.5284 318.121 73.6462 318.679 73.8764C319.236 74.1066 319.743 74.4447 320.169 74.8712C320.596 75.2977 320.934 75.8042 321.164 76.3616C321.394 76.9191 321.512 77.5166 321.511 78.1197L321.501 142.42Z" fill="#66E3CD" stroke="#53D6BF" stroke-miterlimit="10"/>
<path d="M316.92 73.4902H78.0803C77.4771 73.4889 76.8796 73.6068 76.3222 73.837C75.7647 74.0672 75.2582 74.4052 74.8317 74.8317C74.4052 75.2582 74.0672 75.7647 73.837 76.3222C73.6068 76.8796 73.4889 77.4771 73.4902 78.0802V142.42C73.4889 143.024 73.6067 143.622 73.8368 144.18C74.0669 144.738 74.4047 145.245 74.8311 145.672C75.2574 146.1 75.7639 146.439 76.3214 146.67C76.879 146.901 77.4767 147.02 78.0803 147.02H316.92C317.523 147.019 318.12 146.899 318.676 146.667C319.232 146.435 319.738 146.096 320.163 145.669C320.588 145.242 320.925 144.735 321.155 144.178C321.384 143.62 321.502 143.023 321.5 142.42V78.1203C321.507 77.5146 321.393 76.9136 321.166 76.3522C320.939 75.7907 320.603 75.2799 320.177 74.8493C319.751 74.4187 319.244 74.0769 318.685 73.8436C318.126 73.6103 317.526 73.4902 316.92 73.4902ZM115.23 137.89C109.762 137.89 104.416 136.269 99.8687 133.23C95.3217 130.192 91.7778 125.874 89.685 120.821C87.5922 115.769 87.0446 110.21 88.1115 104.846C89.1784 99.4824 91.8119 94.5557 95.6788 90.6887C99.5457 86.8218 104.472 84.1884 109.836 83.1215C115.2 82.0547 120.759 82.6022 125.811 84.695C130.864 86.7877 135.182 90.3317 138.22 94.8787C141.259 99.4258 142.88 104.772 142.88 110.24C142.88 117.573 139.967 124.606 134.782 129.792C129.596 134.977 122.563 137.89 115.23 137.89ZM279.77 137.89C274.302 137.89 268.956 136.269 264.409 133.23C259.862 130.192 256.318 125.874 254.225 120.821C252.132 115.769 251.585 110.21 252.652 104.846C253.718 99.4824 256.352 94.5557 260.219 90.6887C264.086 86.8218 269.012 84.1884 274.376 83.1215C279.74 82.0547 285.299 82.6022 290.351 84.695C295.404 86.7877 299.722 90.3317 302.76 94.8787C305.799 99.4258 307.42 104.772 307.42 110.24C307.42 117.573 304.507 124.606 299.322 129.792C294.136 134.977 287.104 137.89 279.77 137.89Z" fill="#83EAD7" stroke="#66E3CD" stroke-miterlimit="10"/>
<path d="M279.771 82.5898C274.302 82.5898 268.957 84.2115 264.41 87.2497C259.863 90.2879 256.319 94.6063 254.226 99.6586C252.133 104.711 251.586 110.27 252.652 115.634C253.719 120.998 256.353 125.924 260.22 129.791C264.087 133.658 269.013 136.292 274.377 137.359C279.74 138.425 285.3 137.878 290.352 135.785C295.405 133.692 299.723 130.148 302.761 125.601C305.799 121.054 307.421 115.708 307.421 110.24C307.421 102.907 304.508 95.8737 299.323 90.6883C294.137 85.5029 287.104 82.5898 279.771 82.5898ZM301.891 110.23C301.877 111.385 301.76 112.536 301.541 113.67C300.971 117.313 299.488 120.753 297.231 123.67L296.751 124.25C295.852 125.331 294.847 126.319 293.751 127.2L293.141 127.71C292.501 128.2 291.851 128.66 291.141 129.09C288.689 130.573 285.972 131.564 283.141 132.01C280.872 132.476 278.531 132.476 276.261 132.01C273.429 131.571 270.71 130.578 268.261 129.09C267.571 128.66 266.921 128.2 266.261 127.71L265.651 127.2C264.555 126.319 263.55 125.331 262.651 124.25L262.161 123.67C259.914 120.748 258.432 117.31 257.851 113.67C257.398 111.399 257.398 109.061 257.851 106.79C258.428 103.146 259.913 99.707 262.171 96.7898L262.641 96.2098C263.545 95.1177 264.549 94.1132 265.641 93.2098L266.231 92.7198C269.15 90.4681 272.589 88.9891 276.231 88.4198C278.501 87.9532 280.841 87.9532 283.111 88.4198C286.753 88.9891 290.193 90.4681 293.111 92.7198L293.691 93.2098C294.783 94.1136 295.787 95.118 296.691 96.2098L297.161 96.7898C299.42 99.7053 300.903 103.146 301.471 106.79C301.713 107.922 301.853 109.073 301.891 110.23Z" fill="#58D6BF"/>
<path d="M296.76 96.2201C295.856 95.1282 294.852 94.1238 293.76 93.2201L293.18 92.7301C290.262 90.4783 286.822 88.9994 283.18 88.4301C280.911 87.9634 278.57 87.9634 276.3 88.4301C272.658 88.9994 269.219 90.4783 266.3 92.7301L265.71 93.2201C264.618 94.1235 263.614 95.1279 262.71 96.2201L262.24 96.8001C259.982 99.7172 258.497 103.157 257.92 106.8C257.467 109.071 257.467 111.409 257.92 113.68C258.501 117.32 259.983 120.758 262.23 123.68L262.72 124.26C263.619 125.341 264.624 126.329 265.72 127.21L266.33 127.72C266.97 128.21 267.62 128.67 268.33 129.1C270.779 130.589 273.498 131.581 276.33 132.02C278.6 132.487 280.941 132.487 283.21 132.02C286.041 131.575 288.758 130.583 291.21 129.1C291.9 128.67 292.55 128.21 293.21 127.72L293.82 127.21C294.916 126.329 295.921 125.341 296.82 124.26L297.3 123.68C299.557 120.764 301.04 117.324 301.61 113.68C302.077 111.41 302.077 109.07 301.61 106.8C301.042 103.156 299.559 99.7156 297.3 96.8001L296.76 96.2201ZM279.76 129.77C275.897 129.77 272.122 128.625 268.91 126.479C265.698 124.333 263.195 121.283 261.717 117.714C260.239 114.145 259.852 110.218 260.605 106.43C261.359 102.642 263.219 99.1616 265.95 96.4303C268.682 93.6989 272.162 91.8389 275.95 91.0853C279.738 90.3318 283.665 90.7185 287.234 92.1967C290.803 93.6749 293.853 96.1781 295.999 99.3898C298.145 102.601 299.29 106.377 299.29 110.24C299.29 115.418 297.234 120.384 293.573 124.046C289.913 127.709 284.948 129.767 279.77 129.77H279.76Z" fill="white"/>
<path d="M279.77 90.71C275.908 90.71 272.132 91.8554 268.92 94.0013C265.708 96.1473 263.205 99.1975 261.727 102.766C260.249 106.335 259.862 110.262 260.616 114.05C261.369 117.839 263.229 121.318 265.96 124.05C268.692 126.781 272.172 128.641 275.96 129.395C279.749 130.148 283.675 129.762 287.244 128.283C290.813 126.805 293.863 124.302 296.009 121.09C298.155 117.879 299.3 114.103 299.3 110.24C299.3 107.675 298.795 105.136 297.814 102.766C296.832 100.397 295.394 98.2437 293.58 96.4301C291.767 94.6166 289.614 93.1781 287.244 92.1966C284.875 91.2151 282.335 90.71 279.77 90.71ZM299.02 107.42L296.24 110.19L299.02 112.97C298.549 116.286 297.222 119.422 295.17 122.07H291.64V125.6C288.997 127.653 285.864 128.98 282.55 129.45L279.77 126.67L276.99 129.45C273.675 128.977 270.539 127.65 267.89 125.6V122.07H264.37C262.319 119.422 260.992 116.286 260.52 112.97L263.3 110.19L260.5 107.42C260.974 104.104 262.3 100.969 264.35 98.3199H267.87V94.8199C270.52 92.7731 273.655 91.4499 276.97 90.9799L279.75 93.7599L282.53 90.9799C285.843 91.4536 288.975 92.7803 291.62 94.83V98.36H295.15C297.199 100.996 298.532 104.117 299.02 107.42Z" fill="white"/>
<path d="M115.23 82.5898C109.761 82.5898 104.416 84.2115 99.8686 87.2497C95.3215 90.2879 91.7776 94.6063 89.6849 99.6586C87.5921 104.711 87.0445 110.27 88.1114 115.634C89.1782 120.998 91.8117 125.924 95.6786 129.791C99.5455 133.658 104.472 136.292 109.836 137.359C115.199 138.425 120.759 137.878 125.811 135.785C130.864 133.692 135.182 130.148 138.22 125.601C141.258 121.054 142.88 115.708 142.88 110.24C142.88 102.907 139.967 95.8737 134.782 90.6883C129.596 85.5029 122.563 82.5898 115.23 82.5898ZM137.35 110.23C137.334 111.384 137.22 112.535 137.01 113.67C136.431 117.311 134.949 120.749 132.7 123.67L132.21 124.25C131.311 125.331 130.306 126.319 129.21 127.2L128.6 127.71C127.958 128.204 127.29 128.665 126.6 129.09C124.149 130.575 121.431 131.567 118.6 132.01C116.33 132.476 113.99 132.476 111.72 132.01C108.888 131.571 106.169 130.578 103.72 129.09C103.03 128.66 102.38 128.2 101.72 127.71L101.11 127.2C100.014 126.319 99.0093 125.331 98.1101 124.25L97.6301 123.67C95.3744 120.753 93.8919 117.313 93.3201 113.67C92.8534 111.4 92.8534 109.059 93.3201 106.79C93.8886 103.146 95.3714 99.7053 97.6301 96.7898L98.1001 96.2098C99.0038 95.118 100.008 94.1136 101.1 93.2098L101.68 92.7198C104.599 90.4681 108.038 88.9891 111.68 88.4198C113.95 87.9532 116.291 87.9532 118.56 88.4198C122.203 88.987 125.643 90.4662 128.56 92.7198L129.15 93.2098C130.242 94.1132 131.247 95.1177 132.15 96.2098L132.62 96.7898C134.878 99.707 136.364 103.146 136.94 106.79C137.178 107.922 137.315 109.073 137.35 110.23Z" fill="#58D6BF"/>
<path d="M115.229 90.71C111.367 90.71 107.591 91.8554 104.379 94.0013C101.167 96.1473 98.6641 99.1975 97.1859 102.766C95.7077 106.335 95.3209 110.262 96.0745 114.05C96.8281 117.839 98.6881 121.318 101.419 124.05C104.151 126.781 107.631 128.641 111.419 129.395C115.208 130.148 119.134 129.762 122.703 128.283C126.272 126.805 129.322 124.302 131.468 121.09C133.614 117.879 134.759 114.103 134.759 110.24C134.759 105.06 132.702 100.093 129.039 96.4301C125.376 92.7676 120.409 90.71 115.229 90.71ZM134.499 107.42L131.719 110.19L134.499 112.97C134.028 116.286 132.701 119.422 130.649 122.07H127.129V125.6C124.482 127.652 121.345 128.978 118.029 129.45L115.249 126.67L112.499 129.49C109.187 129.016 106.054 127.69 103.409 125.64V122.11H99.8792C97.8316 119.46 96.5052 116.325 96.0293 113.01L98.8092 110.23L95.9792 107.42C96.4525 104.104 97.7792 100.969 99.8292 98.3199H103.359V94.8199C106.005 92.7731 109.137 91.4497 112.449 90.9799L115.229 93.7599L118.009 90.9799C121.325 91.4532 124.461 92.7799 127.109 94.83V98.36H130.629C132.682 100.994 134.015 104.116 134.499 107.42Z" fill="white"/>
<path d="M132.219 96.2201C131.316 95.1279 130.311 94.1235 129.219 93.2201L128.629 92.7301C125.712 90.4765 122.272 88.9973 118.629 88.4301C116.359 87.9634 114.019 87.9634 111.749 88.4301C108.107 88.9994 104.668 90.4783 101.749 92.7301L101.169 93.2201C100.077 94.1238 99.0727 95.1282 98.169 96.2201L97.6991 96.8001C95.4404 99.7156 93.9575 103.156 93.3891 106.8C92.9224 109.07 92.9224 111.41 93.3891 113.68C93.9609 117.323 95.4434 120.763 97.6991 123.68L98.179 124.26C99.0782 125.341 100.083 126.329 101.179 127.21L101.789 127.72C102.429 128.21 103.079 128.67 103.789 129.1C106.238 130.589 108.957 131.581 111.789 132.02C114.059 132.487 116.399 132.487 118.669 132.02C121.5 131.577 124.218 130.585 126.669 129.1C127.359 128.675 128.027 128.215 128.669 127.72L129.279 127.21C130.375 126.329 131.38 125.341 132.279 124.26L132.769 123.68C135.018 120.759 136.5 117.321 137.079 113.68C137.289 112.545 137.403 111.394 137.419 110.24C137.407 109.086 137.294 107.934 137.079 106.8C136.503 103.157 135.017 99.7172 132.759 96.8001L132.219 96.2201ZM115.219 129.77C111.356 129.77 107.58 128.625 104.369 126.479C101.157 124.333 98.6539 121.283 97.1757 117.714C95.6975 114.145 95.3107 110.218 96.0643 106.43C96.8179 102.642 98.6779 99.1616 101.409 96.4303C104.141 93.6989 107.621 91.8389 111.409 91.0853C115.197 90.3318 119.124 90.7185 122.693 92.1967C126.261 93.6749 129.312 96.1781 131.458 99.3898C133.604 102.601 134.749 106.377 134.749 110.24C134.746 115.417 132.689 120.382 129.029 124.043C125.37 127.705 120.406 129.765 115.229 129.77H115.219Z" fill="white"/>
<path fill-rule="evenodd" clip-rule="evenodd" d="M165.35 87.27H229.65C232.086 87.27 234.422 88.2369 236.145 89.9582C237.868 91.6795 238.838 94.0144 238.84 96.45V124.01C238.84 126.447 237.872 128.785 236.148 130.508C234.425 132.232 232.088 133.2 229.65 133.2H165.35C162.913 133.2 160.575 132.232 158.852 130.508C157.128 128.785 156.16 126.447 156.16 124.01V96.42C156.171 93.9896 157.144 91.6624 158.866 89.9475C160.588 88.2327 162.92 87.27 165.35 87.27Z" fill="#FFC394"/>
<path d="M165.35 87.27H229.65C232.086 87.27 234.422 88.2369 236.145 89.9582C237.868 91.6795 238.838 94.0144 238.84 96.45V124.01C238.84 126.447 237.872 128.785 236.148 130.508C234.425 132.232 232.088 133.2 229.65 133.2H165.35C162.913 133.2 160.575 132.232 158.852 130.508C157.128 128.785 156.16 126.447 156.16 124.01V96.42C156.171 93.9896 157.144 91.6624 158.866 89.9475C160.588 88.2327 162.92 87.27 165.35 87.27Z" fill="#414042"/>
<path fill-rule="evenodd" clip-rule="evenodd" d="M229.65 87.27H165.35C162.915 87.27 160.579 88.2369 158.855 89.9582C157.132 91.6795 156.163 94.0144 156.16 96.45V105.64C156.163 103.203 157.132 100.868 158.855 99.1446C160.578 97.4217 162.914 96.4527 165.35 96.45H229.65C232.087 96.4527 234.423 97.4217 236.146 99.1446C237.868 100.868 238.838 103.203 238.84 105.64V96.42C238.83 93.9896 237.857 91.6624 236.134 89.9475C234.412 88.2327 232.081 87.27 229.65 87.27Z" fill="#FFA35E"/>
<path fill-rule="evenodd" clip-rule="evenodd" d="M229.65 87.27H165.35C162.915 87.27 160.579 88.2369 158.855 89.9582C157.132 91.6795 156.163 94.0144 156.16 96.45V105.64C156.163 103.203 157.132 100.868 158.855 99.1446C160.578 97.4217 162.914 96.4527 165.35 96.45H229.65C232.087 96.4527 234.423 97.4217 236.146 99.1446C237.868 100.868 238.838 103.203 238.84 105.64V96.42C238.83 93.9896 237.857 91.6624 236.134 89.9475C234.412 88.2327 232.081 87.27 229.65 87.27Z" fill="#231F20"/>
<path d="M383.701 232.64C382.502 232.65 381.327 232.303 380.326 231.644C379.324 230.986 378.541 230.044 378.076 228.94C377.61 227.835 377.483 226.617 377.711 225.44C377.938 224.263 378.511 223.181 379.355 222.33C380.199 221.479 381.277 220.897 382.452 220.66C383.627 220.422 384.846 220.539 385.954 220.996C387.062 221.452 388.01 222.227 388.677 223.223C389.344 224.219 389.7 225.391 389.701 226.59C389.701 228.186 389.07 229.717 387.946 230.85C386.822 231.983 385.296 232.626 383.701 232.64ZM11.3005 232.64C10.1039 232.64 8.93418 232.285 7.93926 231.62C6.94435 230.955 6.16893 230.01 5.71102 228.905C5.25311 227.799 5.13328 226.583 5.36672 225.409C5.60016 224.236 6.17638 223.158 7.02249 222.312C7.86859 221.466 8.94659 220.889 10.1202 220.656C11.2938 220.422 12.5102 220.542 13.6157 221C14.7212 221.458 15.6661 222.234 16.3309 223.228C16.9956 224.223 17.3505 225.393 17.3505 226.59C17.3478 228.193 16.7096 229.731 15.5756 230.865C14.4415 231.999 12.9042 232.637 11.3005 232.64ZM197.5 209.26C196.297 209.271 195.117 208.925 194.111 208.263C193.106 207.602 192.32 206.656 191.854 205.547C191.387 204.437 191.262 203.213 191.494 202.032C191.726 200.851 192.305 199.766 193.156 198.915C194.007 198.064 195.092 197.485 196.273 197.253C197.454 197.022 198.678 197.147 199.787 197.613C200.897 198.079 201.843 198.865 202.504 199.87C203.166 200.876 203.512 202.056 203.5 203.26C203.485 204.846 202.848 206.363 201.726 207.485C200.604 208.607 199.087 209.244 197.5 209.26ZM383.701 18.2596C382.499 18.2715 381.322 17.9263 380.318 17.2676C379.313 16.609 378.527 15.6668 378.059 14.5606C377.591 13.4544 377.463 12.2341 377.69 11.0546C377.917 9.87515 378.489 8.78976 379.334 7.93624C380.179 7.08272 381.259 6.49957 382.436 6.26084C383.613 6.02211 384.835 6.13857 385.945 6.59542C387.056 7.05227 388.006 7.82891 388.675 8.82673C389.343 9.82455 389.7 10.9985 389.701 12.1996C389.711 13.8034 389.086 15.346 387.961 16.4894C386.836 17.6329 385.304 18.2838 383.701 18.2996V18.2596ZM11.3005 18.2596C10.1015 18.2616 8.9289 17.9079 7.93102 17.2432C6.93315 16.5785 6.15484 15.6328 5.69463 14.5256C5.23443 13.4185 5.113 12.1997 5.3457 11.0235C5.57839 9.84735 6.15478 8.76662 7.00189 7.91811C7.84899 7.06961 8.92875 6.49146 10.1045 6.25683C11.2803 6.02219 12.4993 6.14161 13.6072 6.59998C14.7151 7.05835 15.6622 7.83506 16.3285 8.83184C16.9948 9.82862 17.3505 11.0007 17.3505 12.1996C17.3544 12.9976 17.201 13.7885 16.899 14.5271C16.597 15.2657 16.1523 15.9375 15.5903 16.5041C15.0284 17.0707 14.3603 17.5209 13.6242 17.829C12.8881 18.1371 12.0984 18.297 11.3005 18.2996V18.2596Z" fill="#3A8C7E"/>
<path d="M383.701 6.81986C384.775 6.81986 385.826 7.1386 386.719 7.73569C387.612 8.33279 388.308 9.18143 388.719 10.1742C389.129 11.167 389.236 12.2593 389.026 13.3129C388.816 14.3665 388.298 15.334 387.537 16.093C386.777 16.852 385.808 17.3684 384.754 17.5767C383.7 17.7851 382.608 17.6762 381.616 17.2637C380.624 16.8511 379.777 16.1536 379.181 15.2593C378.586 14.3651 378.269 13.3143 378.271 12.2399C378.271 11.5273 378.412 10.8217 378.685 10.1634C378.958 9.50518 379.358 8.90724 379.862 8.40382C380.366 7.90039 380.965 7.50135 381.624 7.22956C382.283 6.95777 382.988 6.81855 383.701 6.81986ZM11.3011 6.81986C12.3759 6.81788 13.4271 7.13493 14.3216 7.73083C15.2161 8.32672 15.9136 9.17466 16.3259 10.1673C16.7381 11.1599 16.8465 12.2525 16.6373 13.3068C16.4281 14.361 15.9107 15.3295 15.1507 16.0895C14.3907 16.8495 13.4222 17.3668 12.368 17.576C11.3137 17.7852 10.2211 17.6768 9.22851 17.2646C8.2359 16.8524 7.38795 16.1549 6.79205 15.2604C6.19616 14.3659 5.87912 13.3147 5.8811 12.2399C5.88375 10.8032 6.45562 9.42615 7.4715 8.41027C8.48737 7.3944 9.86442 6.82251 11.3011 6.81986ZM197.501 197.82C198.575 197.82 199.625 198.138 200.518 198.735C201.411 199.332 202.107 200.18 202.518 201.172C202.929 202.164 203.036 203.256 202.827 204.309C202.617 205.363 202.1 206.33 201.341 207.089C200.581 207.849 199.614 208.366 198.56 208.576C197.507 208.785 196.415 208.678 195.423 208.267C194.431 207.856 193.583 207.16 192.986 206.267C192.39 205.374 192.071 204.324 192.071 203.25C192.074 201.811 192.647 200.431 193.664 199.413C194.682 198.395 196.062 197.822 197.501 197.82ZM383.701 221.21C384.775 221.21 385.826 221.529 386.719 222.126C387.612 222.723 388.308 223.571 388.719 224.564C389.129 225.557 389.236 226.649 389.026 227.703C388.816 228.756 388.298 229.724 387.537 230.483C386.777 231.242 385.808 231.758 384.754 231.967C383.7 232.175 382.608 232.066 381.616 231.654C380.624 231.241 379.777 230.544 379.181 229.649C378.586 228.755 378.269 227.704 378.271 226.63C378.271 225.917 378.412 225.212 378.685 224.553C378.958 223.895 379.358 223.297 379.862 222.794C380.366 222.29 380.965 221.891 381.624 221.62C382.283 221.348 382.988 221.209 383.701 221.21ZM11.3011 221.21C12.3759 221.208 13.4271 221.525 14.3216 222.121C15.2161 222.717 15.9136 223.565 16.3259 224.557C16.7381 225.55 16.8465 226.643 16.6373 227.697C16.4281 228.751 15.9107 229.719 15.1507 230.479C14.3907 231.239 13.4222 231.757 12.368 231.966C11.3137 232.175 10.2211 232.067 9.22851 231.655C8.2359 231.242 7.38795 230.545 6.79205 229.65C6.19616 228.756 5.87912 227.705 5.8811 226.63C5.88375 225.193 6.45562 223.816 7.4715 222.8C8.48737 221.784 9.86442 221.213 11.3011 221.21ZM383.701 5.60987C382.379 5.60789 381.086 5.99824 379.986 6.73148C378.886 7.46473 378.028 8.5079 377.521 9.72892C377.015 10.9499 376.882 12.2939 377.139 13.5906C377.396 14.8873 378.033 16.0785 378.968 17.0133C379.902 17.9481 381.094 18.5846 382.39 18.842C383.687 19.0994 385.031 18.9663 386.252 18.4595C387.473 17.9526 388.516 17.0949 389.25 15.9948C389.983 14.8948 390.373 13.6019 390.371 12.2799C390.371 10.5109 389.668 8.81434 388.417 7.56347C387.167 6.3126 385.47 5.60987 383.701 5.60987ZM11.3011 5.60987C9.97948 5.60987 8.6876 6.0019 7.58887 6.73635C6.49013 7.4708 5.63393 8.51467 5.12863 9.73586C4.62333 10.9571 4.49162 12.3007 4.75018 13.5967C5.00874 14.8928 5.64596 16.0831 6.58118 17.0169C7.51639 17.9507 8.70758 18.5861 10.004 18.8427C11.3005 19.0994 12.6439 18.9656 13.8644 18.4585C15.0848 17.9514 16.1274 17.0936 16.8602 15.9938C17.593 14.894 17.9831 13.6015 17.9811 12.2799C17.9811 11.4031 17.8082 10.535 17.4724 9.72506C17.1366 8.91517 16.6444 8.17943 16.024 7.55993C15.4036 6.94043 14.6671 6.44933 13.8567 6.11472C13.0463 5.78011 12.1778 5.60856 11.3011 5.60987ZM197.501 196.61C196.18 196.61 194.888 197.002 193.79 197.736C192.691 198.47 191.835 199.513 191.33 200.734C190.824 201.954 190.692 203.297 190.949 204.593C191.207 205.889 191.843 207.079 192.778 208.013C193.712 208.948 194.902 209.584 196.198 209.841C197.494 210.099 198.837 209.967 200.057 209.461C201.278 208.956 202.321 208.1 203.055 207.001C203.789 205.903 204.181 204.611 204.181 203.29C204.181 201.518 203.477 199.819 202.225 198.566C200.972 197.314 199.273 196.61 197.501 196.61ZM383.701 219.92C382.379 219.918 381.086 220.308 379.986 221.041C378.886 221.775 378.028 222.818 377.521 224.039C377.015 225.26 376.882 226.604 377.139 227.901C377.396 229.197 378.033 230.389 378.968 231.323C379.902 232.258 381.094 232.895 382.39 233.152C383.687 233.409 385.031 233.276 386.252 232.769C387.473 232.263 388.516 231.405 389.25 230.305C389.983 229.205 390.373 227.912 390.371 226.59C390.368 224.822 389.665 223.127 388.415 221.876C387.164 220.626 385.469 219.923 383.701 219.92ZM11.3011 219.92C9.97948 219.92 8.6876 220.312 7.58887 221.046C6.49013 221.781 5.63393 222.825 5.12863 224.046C4.62333 225.267 4.49162 226.611 4.75018 227.907C5.00874 229.203 5.64596 230.393 6.58118 231.327C7.51639 232.261 8.70758 232.896 10.004 233.153C11.3005 233.409 12.6439 233.276 13.8644 232.768C15.0848 232.261 16.1274 231.404 16.8602 230.304C17.593 229.204 17.9831 227.911 17.9811 226.59C17.9811 225.713 17.8082 224.845 17.4724 224.035C17.1366 223.225 16.6444 222.489 16.024 221.87C15.4036 221.25 14.6671 220.759 13.8567 220.425C13.0463 220.09 12.1778 219.919 11.3011 219.92Z" fill="#8BF7E4"/>
</svg>
