<svg width="395" height="239" viewBox="0 0 395 239" fill="none" xmlns="http://www.w3.org/2000/svg">
<path d="M73.5 78.0798V142.42C73.4987 143.023 73.6164 143.621 73.8465 144.179C74.0766 144.737 74.4145 145.245 74.8408 145.672C75.2672 146.099 75.7737 146.438 76.3312 146.669C76.8887 146.901 77.4864 147.02 78.09 147.02H316.92C317.523 147.018 318.119 146.898 318.676 146.667C319.232 146.435 319.737 146.095 320.163 145.668C320.588 145.241 320.925 144.734 321.154 144.177C321.384 143.62 321.501 143.023 321.5 142.42V78.1198C321.501 77.5167 321.384 76.9192 321.153 76.3617C320.923 75.8042 320.585 75.2977 320.159 74.8712C319.732 74.4447 319.226 74.1067 318.668 73.8765C318.111 73.6463 317.513 73.5285 316.91 73.5298H78.08C76.8705 73.5298 75.7101 74.0082 74.852 74.8607C73.994 75.7131 73.5079 76.8703 73.5 78.0798ZM252.13 110.24C252.13 104.771 253.752 99.4253 256.79 94.8783C259.828 90.3313 264.146 86.7873 269.199 84.6945C274.251 82.6018 279.811 82.0542 285.174 83.1211C290.538 84.188 295.465 86.8214 299.332 90.6883C303.198 94.5552 305.832 99.482 306.899 104.846C307.966 110.209 307.418 115.769 305.325 120.821C303.233 125.873 299.689 130.192 295.142 133.23C290.595 136.268 285.249 137.89 279.78 137.89C276.148 137.891 272.552 137.177 269.196 135.788C265.84 134.399 262.791 132.363 260.222 129.795C257.653 127.227 255.616 124.179 254.226 120.823C252.836 117.468 252.12 113.872 252.12 110.24H252.13ZM87.59 110.24C87.59 104.771 89.2117 99.4253 92.2499 94.8783C95.2881 90.3313 99.6064 86.7873 104.659 84.6945C109.711 82.6018 115.271 82.0542 120.634 83.1211C125.998 84.188 130.925 86.8214 134.792 90.6883C138.658 94.5552 141.292 99.482 142.359 104.846C143.426 110.209 142.878 115.769 140.785 120.821C138.693 125.873 135.149 130.192 130.602 133.23C126.055 136.268 120.709 137.89 115.24 137.89C111.608 137.891 108.012 137.177 104.656 135.788C101.3 134.399 98.2506 132.363 95.682 129.795C93.1134 127.227 91.0759 124.179 89.6857 120.823C88.2955 117.468 87.58 113.872 87.58 110.24H87.59Z" fill="#F785D7"/>
<path d="M0 4.58997V234.24C-2.87869e-06 235.458 0.483267 236.627 1.34377 237.489C2.20428 238.352 3.37173 238.837 4.59 238.84H390.41C391.628 238.837 392.796 238.352 393.656 237.489C394.517 236.627 395 235.458 395 234.24V4.58997C394.997 3.37343 394.513 2.20751 393.653 1.34729C392.792 0.48707 391.627 0.00264177 390.41 0H4.59C3.37346 0.00264177 2.20752 0.48707 1.3473 1.34729C0.487078 2.20751 0.00264177 3.37343 0 4.58997ZM275.58 215.87C275.58 214.052 276.119 212.276 277.129 210.764C278.139 209.253 279.574 208.075 281.253 207.38C282.932 206.684 284.78 206.502 286.563 206.857C288.346 207.211 289.983 208.086 291.268 209.372C292.554 210.657 293.429 212.294 293.783 214.077C294.138 215.86 293.956 217.708 293.26 219.387C292.565 221.066 291.387 222.501 289.876 223.511C288.364 224.521 286.588 225.06 284.77 225.06C282.333 225.06 279.995 224.092 278.272 222.368C276.548 220.645 275.58 218.307 275.58 215.87ZM238.84 202.09H252.62V215.87H238.84V202.09ZM142.38 202.09H156.16V215.87H142.38V202.09ZM101.05 215.87C101.05 214.052 101.589 212.275 102.599 210.763C103.61 209.252 105.046 208.074 106.725 207.379C108.405 206.683 110.254 206.502 112.037 206.857C113.82 207.213 115.457 208.089 116.742 209.375C118.027 210.661 118.901 212.3 119.255 214.083C119.608 215.867 119.425 217.715 118.728 219.394C118.03 221.073 116.851 222.507 115.338 223.516C113.826 224.525 112.048 225.062 110.23 225.06C109.024 225.06 107.829 224.822 106.715 224.36C105.6 223.898 104.588 223.221 103.735 222.368C102.883 221.514 102.207 220.501 101.746 219.386C101.285 218.271 101.049 217.076 101.05 215.87ZM27.56 32.15C27.56 29.7153 28.5272 27.3803 30.2488 25.6588C31.9703 23.9372 34.3053 22.97 36.74 22.97H358.26C360.695 22.97 363.03 23.9372 364.751 25.6588C366.473 27.3803 367.44 29.7153 367.44 32.15V160.76C367.44 163.195 366.473 165.53 364.751 167.251C363.03 168.973 360.695 169.94 358.26 169.94H36.74C34.3053 169.94 31.9703 168.973 30.2488 167.251C28.5272 165.53 27.56 163.195 27.56 160.76V32.15Z" fill="#F785D7"/>
<path d="M55.1094 235.5H55.7794L64.2994 192.91C64.2994 191.702 64.5374 190.506 64.9999 189.391C65.4623 188.275 66.1402 187.262 66.9946 186.408C67.849 185.555 68.8633 184.878 69.9794 184.417C71.0956 183.955 72.2917 183.719 73.4994 183.72H321.499C323.937 183.72 326.274 184.688 327.998 186.412C329.721 188.135 330.689 190.473 330.689 192.91L339.209 235.5H339.879L330.689 189.57C330.676 187.14 329.702 184.815 327.981 183.1C326.259 181.386 323.929 180.423 321.499 180.42H73.4994C71.0628 180.423 68.7269 181.392 67.004 183.115C65.2811 184.837 64.312 187.173 64.3094 189.61L55.1094 235.5Z" fill="#FFABE7"/>
<path d="M55.1094 238.84H339.889L339.219 235.5L330.699 192.91C330.699 191.702 330.461 190.506 329.999 189.391C329.536 188.275 328.859 187.261 328.004 186.408C327.15 185.554 326.135 184.878 325.019 184.416C323.903 183.955 322.707 183.718 321.499 183.72H73.4994C71.062 183.72 68.7245 184.688 67.0011 186.411C65.2776 188.135 64.3094 190.472 64.3094 192.91L55.7894 235.5L55.1094 238.84ZM119.419 215.84C119.418 218.202 118.505 220.473 116.871 222.18C115.238 223.887 113.009 224.898 110.649 225.003C108.289 225.109 105.979 224.3 104.2 222.746C102.421 221.192 101.309 219.012 101.097 216.659C100.884 214.306 101.587 211.961 103.058 210.113C104.53 208.265 106.658 207.056 108.999 206.737C111.339 206.417 113.713 207.013 115.626 208.399C117.539 209.785 118.844 211.856 119.269 214.18C119.371 214.737 119.422 215.303 119.419 215.87V215.84ZM156.159 215.84H142.389V202.09H156.159V215.84ZM252.609 215.84H238.839V202.09H252.609V215.84ZM293.959 215.84C293.973 218.218 293.069 220.51 291.436 222.239C289.802 223.967 287.565 225 285.19 225.121C282.814 225.242 280.484 224.442 278.683 222.888C276.883 221.335 275.75 219.146 275.522 216.779C275.294 214.412 275.987 212.048 277.458 210.179C278.929 208.309 281.064 207.08 283.419 206.745C285.773 206.41 288.166 206.996 290.1 208.381C292.033 209.765 293.358 211.843 293.799 214.18C293.905 214.737 293.958 215.303 293.959 215.87V215.84Z" fill="#F163C7"/>
<path d="M27.5605 32.1497V160.76C27.5605 163.194 28.5277 165.529 30.2493 167.251C31.9709 168.973 34.3059 169.94 36.7406 169.94H358.261C360.695 169.94 363.03 168.973 364.752 167.251C366.473 165.529 367.441 163.194 367.441 160.76V32.1497C367.441 29.715 366.473 27.3801 364.752 25.6585C363.03 23.9369 360.695 22.9697 358.261 22.9697H36.7406C34.3059 22.9697 31.9709 23.9369 30.2493 25.6585C28.5277 27.3801 27.5605 29.715 27.5605 32.1497ZM73.5005 78.0797C73.4992 77.4766 73.6171 76.8791 73.8473 76.3217C74.0775 75.7642 74.4155 75.2577 74.842 74.8312C75.2685 74.4047 75.775 74.0666 76.3325 73.8364C76.89 73.6062 77.4874 73.4884 78.0905 73.4897H316.921C317.524 73.4884 318.121 73.6062 318.679 73.8364C319.236 74.0666 319.743 74.4047 320.169 74.8312C320.596 75.2577 320.934 75.7642 321.164 76.3217C321.394 76.8791 321.512 77.4766 321.511 78.0797V142.42C321.512 143.023 321.394 143.621 321.164 144.179C320.934 144.737 320.596 145.245 320.17 145.672C319.743 146.099 319.237 146.438 318.679 146.669C318.122 146.901 317.524 147.02 316.921 147.02H78.0806C77.4778 147.018 76.8812 146.898 76.3248 146.667C75.7684 146.435 75.2632 146.095 74.8379 145.668C74.4126 145.241 74.0756 144.734 73.8461 144.177C73.6167 143.62 73.4992 143.023 73.5005 142.42V78.0797Z" fill="#F163C7" stroke="#EB57BF" stroke-miterlimit="10"/>
<path d="M73.5 78.0798V142.42C73.4987 143.023 73.6164 143.621 73.8465 144.179C74.0766 144.737 74.4145 145.245 74.8408 145.672C75.2672 146.099 75.7737 146.438 76.3312 146.669C76.8887 146.901 77.4864 147.02 78.09 147.02H316.92C317.523 147.018 318.119 146.898 318.676 146.667C319.232 146.435 319.737 146.095 320.163 145.668C320.588 145.241 320.925 144.734 321.154 144.177C321.384 143.62 321.501 143.023 321.5 142.42V78.1198C321.501 77.5167 321.384 76.9192 321.153 76.3617C320.923 75.8042 320.585 75.2977 320.159 74.8712C319.732 74.4447 319.226 74.1067 318.668 73.8765C318.111 73.6463 317.513 73.5285 316.91 73.5298H78.08C76.8705 73.5298 75.7101 74.0082 74.852 74.8607C73.994 75.7131 73.5079 76.8703 73.5 78.0798ZM252.13 110.24C252.13 104.771 253.752 99.4253 256.79 94.8783C259.828 90.3313 264.146 86.7873 269.199 84.6945C274.251 82.6018 279.811 82.0542 285.174 83.1211C290.538 84.188 295.465 86.8214 299.332 90.6883C303.198 94.5552 305.832 99.482 306.899 104.846C307.966 110.209 307.418 115.769 305.325 120.821C303.233 125.873 299.689 130.192 295.142 133.23C290.595 136.268 285.249 137.89 279.78 137.89C276.148 137.891 272.552 137.177 269.196 135.788C265.84 134.399 262.791 132.363 260.222 129.795C257.653 127.227 255.616 124.179 254.226 120.823C252.836 117.468 252.12 113.872 252.12 110.24H252.13ZM87.59 110.24C87.59 104.771 89.2117 99.4253 92.2499 94.8783C95.2881 90.3313 99.6064 86.7873 104.659 84.6945C109.711 82.6018 115.271 82.0542 120.634 83.1211C125.998 84.188 130.925 86.8214 134.792 90.6883C138.658 94.5552 141.292 99.482 142.359 104.846C143.426 110.209 142.878 115.769 140.785 120.821C138.693 125.873 135.149 130.192 130.602 133.23C126.055 136.268 120.709 137.89 115.24 137.89C111.608 137.891 108.012 137.177 104.656 135.788C101.3 134.399 98.2506 132.363 95.682 129.795C93.1134 127.227 91.0759 124.179 89.6857 120.823C88.2955 117.468 87.58 113.872 87.58 110.24H87.59Z" fill="#F785D7" stroke="#F163C7" stroke-miterlimit="10"/>
<path d="M87.5801 110.24C87.5801 115.709 89.2017 121.054 92.2399 125.601C95.2782 130.148 99.5965 133.692 104.649 135.785C109.701 137.878 115.261 138.425 120.624 137.359C125.988 136.292 130.915 133.658 134.782 129.791C138.649 125.924 141.282 120.998 142.349 115.634C143.416 110.271 142.868 104.711 140.775 99.6587C138.683 94.6063 135.139 90.288 130.592 87.2498C126.045 84.2115 120.699 82.5898 115.23 82.5898C107.897 82.5898 100.864 85.503 95.6786 90.6884C90.4932 95.8737 87.5801 102.907 87.5801 110.24ZM93.4601 106.79C94.0285 103.146 95.5114 99.7054 97.7701 96.7899L98.2401 96.2098C99.1438 95.118 100.148 94.1136 101.24 93.2098L101.82 92.7198C104.739 90.4681 108.178 88.9892 111.82 88.4199C114.09 87.9532 116.43 87.9532 118.7 88.4199C122.342 88.9892 125.782 90.4681 128.7 92.7198L129.29 93.2098C130.382 94.1132 131.387 95.1177 132.29 96.2098L132.76 96.7899C135.018 99.707 136.504 103.146 137.08 106.79C137.533 109.061 137.533 111.399 137.08 113.67C136.499 117.31 135.018 120.748 132.77 123.67L132.28 124.25C131.381 125.331 130.376 126.319 129.28 127.2L128.67 127.71C128.03 128.2 127.38 128.71 126.67 129.09C124.221 130.578 121.502 131.571 118.67 132.01C116.4 132.477 114.06 132.477 111.79 132.01C108.959 131.564 106.242 130.573 103.79 129.09C103.1 128.66 102.45 128.2 101.79 127.71L101.18 127.2C100.102 126.316 99.1135 125.328 98.2301 124.25L97.7501 123.67C95.4929 120.753 94.0102 117.313 93.4401 113.67C92.9734 111.4 92.9734 109.059 93.4401 106.79H93.4601Z" fill="#F157C3"/>
<path d="M97.7694 96.8001C95.5107 99.7156 94.0278 103.156 93.4594 106.8C92.9927 109.07 92.9927 111.41 93.4594 113.68C94.0295 117.324 95.5122 120.764 97.7694 123.68L98.2494 124.26C99.1328 125.339 100.121 126.327 101.199 127.21L101.809 127.72C102.449 128.21 103.099 128.72 103.809 129.1C106.262 130.583 108.979 131.575 111.809 132.02C114.079 132.487 116.42 132.487 118.689 132.02C121.522 131.581 124.24 130.589 126.689 129.1C127.379 128.67 128.029 128.21 128.689 127.72L129.299 127.21C130.395 126.329 131.4 125.341 132.299 124.26L132.789 123.68C135.037 120.758 136.518 117.32 137.099 113.68C137.553 111.409 137.553 109.071 137.099 106.8C136.523 103.157 135.037 99.7172 132.779 96.8001L132.309 96.2201C131.406 95.1279 130.402 94.1235 129.309 93.2201L128.719 92.7301C125.801 90.4783 122.361 88.9994 118.719 88.4301C116.45 87.9634 114.109 87.9634 111.839 88.4301C108.197 88.9994 104.758 90.4783 101.839 92.7301L101.259 93.2201C100.168 94.1238 99.1631 95.1282 98.2594 96.2201L97.7694 96.8001ZM95.6994 110.24C95.6994 106.377 96.8448 102.601 98.9908 99.3898C101.137 96.1781 104.187 93.6749 107.756 92.1967C111.324 90.7185 115.251 90.3318 119.039 91.0854C122.828 91.8389 126.308 93.6989 129.039 96.4303C131.77 99.1616 133.631 102.642 134.384 106.43C135.138 110.218 134.751 114.145 133.273 117.714C131.795 121.283 129.291 124.333 126.08 126.479C122.868 128.625 119.092 129.77 115.229 129.77C112.665 129.77 110.125 129.265 107.756 128.283C105.386 127.302 103.233 125.863 101.42 124.05C99.6061 122.236 98.1675 120.083 97.186 117.714C96.2045 115.344 95.6994 112.805 95.6994 110.24Z" fill="white"/>
<path d="M95.6992 110.24C95.6992 114.103 96.8446 117.879 98.9906 121.09C101.137 124.302 104.187 126.805 107.755 128.283C111.324 129.762 115.251 130.148 119.039 129.395C122.828 128.641 126.308 126.781 129.039 124.05C131.77 121.318 133.63 117.839 134.384 114.05C135.138 110.262 134.751 106.335 133.273 102.766C131.794 99.1975 129.291 96.1474 126.08 94.0014C122.868 91.8554 119.092 90.71 115.229 90.71C110.05 90.7126 105.084 92.7711 101.422 96.4331C97.7603 100.095 95.7019 105.061 95.6992 110.24ZM99.8292 98.36H103.359V94.83C106.004 92.7803 109.137 91.4536 112.449 90.98L115.229 93.76L118.009 90.98C121.324 91.4499 124.46 92.7732 127.109 94.82V98.35H130.629C132.682 100.988 134.015 104.113 134.499 107.42L131.719 110.2L134.499 112.98C134.028 116.296 132.701 119.432 130.649 122.08H127.129V125.61C124.481 127.66 121.345 128.987 118.029 129.46L115.249 126.68L112.499 129.49C109.186 129.02 106.052 127.693 103.409 125.64V122.11H99.8792C97.8276 119.462 96.5007 116.326 96.0292 113.01L98.8092 110.23L95.9792 107.42C96.4618 104.119 97.7879 100.999 99.8292 98.36Z" fill="white"/>
<path d="M252.121 110.24C252.121 115.709 253.743 121.054 256.781 125.601C259.819 130.148 264.138 133.692 269.19 135.785C274.242 137.878 279.802 138.425 285.165 137.359C290.529 136.292 295.456 133.658 299.323 129.791C303.19 125.924 305.823 120.998 306.89 115.634C307.957 110.271 307.409 104.711 305.316 99.6587C303.224 94.6063 299.68 90.288 295.133 87.2498C290.586 84.2115 285.24 82.5898 279.771 82.5898C272.438 82.5898 265.405 85.503 260.22 90.6884C255.034 95.8737 252.121 102.907 252.121 110.24ZM257.991 106.79C258.568 103.146 260.053 99.707 262.311 96.7899L262.781 96.2098C263.685 95.1177 264.689 94.1132 265.781 93.2098L266.371 92.7198C269.289 90.4662 272.729 88.9871 276.371 88.4199C278.641 87.9532 280.982 87.9532 283.251 88.4199C286.893 88.9892 290.333 90.4681 293.251 92.7198L293.831 93.2098C294.923 94.1136 295.927 95.118 296.831 96.2098L297.301 96.7899C299.56 99.7054 301.043 103.146 301.611 106.79C302.078 109.059 302.078 111.4 301.611 113.67C301.039 117.313 299.557 120.753 297.301 123.67L296.821 124.25C295.938 125.328 294.95 126.316 293.871 127.2L293.261 127.71C292.621 128.2 291.971 128.71 291.261 129.09C288.812 130.578 286.093 131.571 283.261 132.01C280.992 132.477 278.651 132.477 276.381 132.01C273.55 131.567 270.832 130.575 268.381 129.09C267.691 128.665 267.023 128.204 266.381 127.71L265.771 127.2C264.693 126.316 263.705 125.328 262.821 124.25L262.331 123.67C260.082 120.749 258.6 117.311 258.021 113.67C257.811 112.535 257.697 111.384 257.681 110.23C257.683 109.076 257.787 107.925 257.991 106.79Z" fill="#F157C3"/>
<path d="M260.24 110.24C260.24 114.103 261.386 117.879 263.532 121.09C265.678 124.302 268.728 126.805 272.296 128.283C275.865 129.762 279.792 130.148 283.58 129.395C287.369 128.641 290.849 126.781 293.58 124.05C296.311 121.318 298.171 117.839 298.925 114.05C299.679 110.262 299.292 106.335 297.814 102.766C296.335 99.1975 293.832 96.1474 290.621 94.0014C287.409 91.8554 283.633 90.71 279.77 90.71C274.591 90.71 269.623 92.7676 265.96 96.4302C262.298 100.093 260.24 105.06 260.24 110.24ZM264.37 98.36H267.89V94.83C270.539 92.7799 273.675 91.4533 276.99 90.98L279.77 93.76L282.55 90.98C285.862 91.4498 288.995 92.7731 291.64 94.82V98.35H295.17C297.22 100.999 298.547 104.134 299.02 107.45L296.24 110.23L299.02 113.01C298.544 116.325 297.218 119.46 295.17 122.11H291.64V125.64C288.995 127.69 285.863 129.016 282.55 129.49L279.77 126.71L276.99 129.49C273.674 129.018 270.538 127.692 267.89 125.64V122.11H264.37C262.319 119.462 260.992 116.326 260.52 113.01L263.3 110.23L260.5 107.42C260.984 104.116 262.318 100.994 264.37 98.36Z" fill="white"/>
<path d="M262.31 96.8001C260.053 99.7172 258.567 103.157 257.99 106.8C257.776 107.934 257.662 109.086 257.65 110.24C257.666 111.394 257.78 112.545 257.99 113.68C258.569 117.321 260.051 120.759 262.3 123.68L262.79 124.26C263.674 125.339 264.662 126.327 265.74 127.21L266.35 127.72C266.993 128.215 267.66 128.675 268.35 129.1C270.801 130.585 273.519 131.577 276.35 132.02C278.62 132.487 280.961 132.487 283.23 132.02C286.063 131.581 288.781 130.589 291.23 129.1C291.92 128.67 292.57 128.21 293.23 127.72L293.84 127.21C294.919 126.327 295.907 125.339 296.79 124.26L297.27 123.68C299.526 120.763 301.009 117.323 301.58 113.68C302.047 111.41 302.047 109.07 301.58 106.8C301.012 103.156 299.529 99.7156 297.27 96.8001L296.8 96.2201C295.897 95.1282 294.892 94.1238 293.8 93.2201L293.22 92.7301C290.302 90.4783 286.862 88.9994 283.22 88.4301C280.951 87.9634 278.61 87.9634 276.34 88.4301C272.698 88.9973 269.258 90.4765 266.34 92.7301L265.75 93.2201C264.658 94.1235 263.654 95.1279 262.75 96.2201L262.31 96.8001ZM260.24 110.24C260.24 106.377 261.386 102.601 263.532 99.3898C265.678 96.1781 268.728 93.6749 272.297 92.1967C275.865 90.7185 279.792 90.3318 283.581 91.0854C287.369 91.8389 290.849 93.6989 293.58 96.4303C296.312 99.1616 298.172 102.642 298.925 106.43C299.679 110.218 299.292 114.145 297.814 117.714C296.336 121.283 293.832 124.333 290.621 126.479C287.409 128.625 283.633 129.77 279.77 129.77C274.591 129.77 269.623 127.712 265.961 124.05C262.298 120.387 260.24 115.42 260.24 110.24Z" fill="white"/>
<path fill-rule="evenodd" clip-rule="evenodd" d="M229.65 87.27H165.35C162.915 87.27 160.579 88.2369 158.855 89.9582C157.132 91.6795 156.163 94.0145 156.16 96.4501V124.01C156.16 126.447 157.128 128.785 158.852 130.508C160.575 132.232 162.913 133.2 165.35 133.2H229.65C232.087 133.2 234.425 132.232 236.148 130.508C237.872 128.785 238.84 126.447 238.84 124.01V96.42C238.83 93.9896 237.857 91.6624 236.134 89.9476C234.412 88.2328 232.081 87.27 229.65 87.27Z" fill="#32BAA1"/>
<path d="M229.65 87.27H165.35C162.915 87.27 160.579 88.2369 158.855 89.9582C157.132 91.6795 156.163 94.0145 156.16 96.4501V124.01C156.16 126.447 157.128 128.785 158.852 130.508C160.575 132.232 162.913 133.2 165.35 133.2H229.65C232.087 133.2 234.425 132.232 236.148 130.508C237.872 128.785 238.84 126.447 238.84 124.01V96.42C238.83 93.9896 237.857 91.6624 236.134 89.9476C234.412 88.2328 232.081 87.27 229.65 87.27Z" fill="#414042"/>
<path fill-rule="evenodd" clip-rule="evenodd" d="M165.35 87.27H229.65C232.086 87.27 234.422 88.2369 236.145 89.9582C237.868 91.6795 238.838 94.0145 238.84 96.4501V105.64C238.838 103.203 237.868 100.868 236.146 99.1447C234.423 97.4218 232.087 96.4527 229.65 96.4501H165.35C162.914 96.4527 160.578 97.4218 158.855 99.1447C157.132 100.868 156.163 103.203 156.16 105.64V96.42C156.171 93.9896 157.144 91.6624 158.866 89.9476C160.588 88.2328 162.92 87.27 165.35 87.27Z" fill="#1F7363"/>
<path fill-rule="evenodd" clip-rule="evenodd" d="M165.35 87.27H229.65C232.086 87.27 234.422 88.2369 236.145 89.9582C237.868 91.6795 238.838 94.0145 238.84 96.4501V105.64C238.838 103.203 237.868 100.868 236.146 99.1447C234.423 97.4218 232.087 96.4527 229.65 96.4501H165.35C162.914 96.4527 160.578 97.4218 158.855 99.1447C157.132 100.868 156.163 103.203 156.16 105.64V96.42C156.171 93.9896 157.144 91.6624 158.866 89.9476C160.588 88.2328 162.92 87.27 165.35 87.27Z" fill="#231F20"/>
<path d="M383.7 232.64C382.517 232.63 381.364 232.271 380.385 231.608C379.406 230.945 378.645 230.007 378.197 228.913C377.749 227.818 377.635 226.616 377.868 225.457C378.101 224.298 378.671 223.233 379.507 222.397C380.343 221.561 381.408 220.991 382.567 220.758C383.726 220.525 384.928 220.639 386.023 221.087C387.117 221.535 388.055 222.296 388.718 223.275C389.381 224.254 389.74 225.407 389.75 226.59C389.75 228.194 389.112 229.733 387.978 230.868C386.843 232.002 385.304 232.64 383.7 232.64ZM11.2997 232.64C10.1151 232.64 8.95711 232.289 7.97153 231.632C6.98594 230.975 6.21692 230.041 5.76136 228.947C5.3058 227.854 5.1841 226.65 5.41159 225.487C5.63908 224.325 6.20557 223.256 7.03969 222.415C7.87381 221.574 8.93823 220.998 10.0988 220.761C11.2594 220.524 12.4642 220.636 13.5614 221.082C14.6586 221.529 15.599 222.29 16.2643 223.27C16.9296 224.25 17.2898 225.405 17.2997 226.59C17.2971 228.185 16.6658 229.715 15.5425 230.847C14.4193 231.98 12.8948 232.624 11.2997 232.64ZM197.5 209.26C196.3 209.262 195.127 208.908 194.129 208.243C193.131 207.577 192.353 206.631 191.893 205.523C191.433 204.416 191.312 203.196 191.546 202.02C191.779 200.843 192.357 199.763 193.205 198.915C194.053 198.066 195.133 197.489 196.31 197.256C197.486 197.022 198.706 197.143 199.813 197.603C200.921 198.063 201.867 198.841 202.533 199.839C203.198 200.837 203.552 202.01 203.55 203.21C203.547 204.813 202.909 206.351 201.775 207.485C200.641 208.619 199.103 209.257 197.5 209.26ZM383.7 18.2597C382.501 18.2617 381.328 17.9079 380.33 17.2432C379.332 16.5785 378.554 15.6328 378.094 14.5257C377.634 13.4185 377.512 12.1997 377.745 11.0235C377.978 9.84736 378.554 8.76664 379.401 7.91813C380.248 7.06962 381.328 6.49145 382.504 6.25681C383.68 6.02218 384.899 6.14164 386.006 6.60002C387.114 7.05839 388.061 7.83511 388.728 8.83189C389.394 9.82867 389.75 11.0007 389.75 12.1997C389.755 12.998 389.602 13.7895 389.301 14.5287C388.999 15.2679 388.555 15.9402 387.992 16.5071C387.43 17.0739 386.762 17.5241 386.025 17.8317C385.288 18.1393 384.498 18.2984 383.7 18.2997V18.2597ZM11.2997 18.2597C10.0987 18.2716 8.92117 17.9263 7.91675 17.2677C6.91232 16.6091 6.12627 15.6668 5.65838 14.5606C5.1905 13.4544 5.0619 12.2341 5.28891 11.0546C5.51591 9.87515 6.0883 8.78978 6.93336 7.93626C7.77843 7.08274 8.85807 6.49957 10.0352 6.26084C11.2123 6.02211 12.4339 6.13859 13.5447 6.59544C14.6555 7.05229 15.6055 7.82894 16.2741 8.82676C16.9427 9.82458 17.2996 10.9986 17.2997 12.1997C17.3077 13.8027 16.6813 15.3437 15.5572 16.4866C14.4331 17.6294 12.9026 18.2812 11.2997 18.2997V18.2597Z" fill="#A83D88"/>
<path d="M383.701 6.81989C384.775 6.81989 385.826 7.13856 386.719 7.73566C387.612 8.33276 388.308 9.18142 388.719 10.1742C389.129 11.167 389.236 12.2593 389.026 13.3129C388.816 14.3665 388.298 15.334 387.537 16.093C386.777 16.852 385.808 17.3683 384.754 17.5767C383.7 17.7851 382.608 17.6762 381.616 17.2637C380.624 16.8512 379.777 16.1536 379.181 15.2593C378.586 14.3651 378.269 13.3143 378.271 12.2399C378.271 11.5273 378.412 10.8216 378.685 10.1634C378.958 9.50516 379.358 8.90724 379.862 8.40382C380.366 7.90039 380.965 7.50135 381.624 7.22956C382.283 6.95777 382.988 6.81858 383.701 6.81989ZM11.3011 6.81989C12.3759 6.81792 13.4271 7.13495 14.3216 7.73084C15.2161 8.32674 15.9136 9.17463 16.3258 10.1672C16.7381 11.1599 16.8464 12.2525 16.6372 13.3068C16.428 14.361 15.9107 15.3294 15.1507 16.0894C14.3907 16.8494 13.4222 17.3668 12.368 17.576C11.3137 17.7852 10.2211 17.6768 9.22849 17.2646C8.23588 16.8524 7.38794 16.1549 6.79205 15.2604C6.19615 14.3659 5.87911 13.3147 5.88109 12.2399C5.88373 10.8032 6.45562 9.42616 7.47149 8.41029C8.48736 7.39441 9.86443 6.82254 11.3011 6.81989ZM197.501 197.82C198.575 197.82 199.625 198.138 200.518 198.735C201.411 199.332 202.107 200.18 202.518 201.172C202.929 202.164 203.036 203.256 202.827 204.309C202.617 205.363 202.1 206.33 201.341 207.089C200.581 207.849 199.614 208.366 198.56 208.576C197.507 208.785 196.415 208.678 195.423 208.267C194.431 207.856 193.583 207.16 192.986 206.267C192.39 205.374 192.071 204.324 192.071 203.25C192.074 201.811 192.647 200.431 193.664 199.413C194.682 198.395 196.062 197.823 197.501 197.82ZM383.701 221.21C384.775 221.21 385.826 221.529 386.719 222.126C387.612 222.723 388.308 223.571 388.719 224.564C389.129 225.557 389.236 226.649 389.026 227.703C388.816 228.756 388.298 229.724 387.537 230.483C386.777 231.242 385.808 231.758 384.754 231.967C383.7 232.175 382.608 232.066 381.616 231.654C380.624 231.241 379.777 230.544 379.181 229.649C378.586 228.755 378.269 227.704 378.271 226.63C378.271 225.917 378.412 225.212 378.685 224.553C378.958 223.895 379.358 223.297 379.862 222.794C380.366 222.29 380.965 221.891 381.624 221.62C382.283 221.348 382.988 221.209 383.701 221.21ZM11.3011 221.21C12.3759 221.208 13.4271 221.525 14.3216 222.121C15.2161 222.717 15.9136 223.565 16.3258 224.557C16.7381 225.55 16.8464 226.642 16.6372 227.697C16.428 228.751 15.9107 229.719 15.1507 230.479C14.3907 231.239 13.4222 231.757 12.368 231.966C11.3137 232.175 10.2211 232.067 9.22849 231.655C8.23588 231.242 7.38794 230.545 6.79205 229.65C6.19615 228.756 5.87911 227.705 5.88109 226.63C5.88373 225.193 6.45562 223.816 7.47149 222.8C8.48736 221.784 9.86443 221.212 11.3011 221.21ZM383.701 5.60987C382.379 5.60789 381.086 5.99827 379.986 6.73151C378.886 7.46476 378.028 8.50793 377.522 9.72895C377.015 10.95 376.882 12.2939 377.139 13.5906C377.396 14.8873 378.033 16.0785 378.968 17.0133C379.902 17.9481 381.094 18.5846 382.39 18.842C383.687 19.0994 385.031 18.9663 386.252 18.4595C387.473 17.9526 388.516 17.0949 389.249 15.9948C389.983 14.8948 390.373 13.6019 390.371 12.2799C390.368 10.5117 389.665 8.81671 388.415 7.56641C387.164 6.31612 385.469 5.61252 383.701 5.60987ZM11.3011 5.60987C9.97949 5.60987 8.68758 6.00188 7.58885 6.73634C6.49011 7.47079 5.63392 8.51465 5.12862 9.73585C4.62333 10.957 4.49162 12.3007 4.75018 13.5967C5.00874 14.8928 5.64595 16.083 6.58116 17.0169C7.51638 17.9507 8.70758 18.5861 10.004 18.8427C11.3005 19.0993 12.6439 18.9656 13.8644 18.4585C15.0848 17.9514 16.1274 17.0936 16.8602 15.9938C17.593 14.8939 17.9831 13.6015 17.9811 12.2799C17.9811 11.4031 17.8082 10.5349 17.4724 9.72504C17.1366 8.91515 16.6444 8.17944 16.024 7.55994C15.4035 6.94045 14.6671 6.4493 13.8567 6.11469C13.0463 5.78008 12.1779 5.60856 11.3011 5.60987ZM197.501 196.61C196.18 196.61 194.888 197.002 193.79 197.736C192.691 198.47 191.835 199.513 191.33 200.734C190.824 201.954 190.692 203.297 190.949 204.593C191.207 205.889 191.843 207.079 192.778 208.013C193.712 208.948 194.902 209.584 196.198 209.841C197.494 210.099 198.837 209.967 200.057 209.461C201.278 208.956 202.321 208.1 203.055 207.001C203.789 205.903 204.181 204.611 204.181 203.29C204.181 201.518 203.477 199.819 202.225 198.566C200.972 197.314 199.273 196.61 197.501 196.61ZM383.701 219.92C382.379 219.918 381.086 220.308 379.986 221.042C378.886 221.775 378.028 222.818 377.522 224.039C377.015 225.26 376.882 226.604 377.139 227.901C377.396 229.197 378.033 230.388 378.968 231.323C379.902 232.258 381.094 232.895 382.39 233.152C383.687 233.409 385.031 233.276 386.252 232.769C387.473 232.263 388.516 231.405 389.249 230.305C389.983 229.205 390.373 227.912 390.371 226.59C390.368 224.822 389.665 223.127 388.415 221.876C387.164 220.626 385.469 219.923 383.701 219.92ZM11.3011 219.92C9.97949 219.92 8.68758 220.312 7.58885 221.046C6.49011 221.781 5.63392 222.825 5.12862 224.046C4.62333 225.267 4.49162 226.611 4.75018 227.907C5.00874 229.203 5.64595 230.393 6.58116 231.327C7.51638 232.261 8.70758 232.896 10.004 233.153C11.3005 233.409 12.6439 233.276 13.8644 232.768C15.0848 232.261 16.1274 231.404 16.8602 230.304C17.593 229.204 17.9831 227.911 17.9811 226.59C17.9811 225.713 17.8082 224.845 17.4724 224.035C17.1366 223.225 16.6444 222.489 16.024 221.87C15.4035 221.25 14.6671 220.759 13.8567 220.425C13.0463 220.09 12.1779 219.919 11.3011 219.92Z" fill="#FFABE7"/>
</svg>
